<?xml version="1.0" standalone="no"?><!-- Generator: Gravit.io --><svg xmlns="http://www.w3.org/2000/svg" xmlns:xlink="http://www.w3.org/1999/xlink" style="isolation:isolate" viewBox="0 0 48 48" width="48" height="48"><path d=" M 0 0 L 48 0 L 48 48 L 0 48 L 0 0 Z " fill="none"/><path d=" M 24 16 C 19.58 16 16 19.58 16 24 C 16 28.42 19.58 32 24 32 C 28.42 32 32 28.42 32 24 C 32 19.58 28.42 16 24 16 Z  M 41.88 22 C 40.96 13.66 34.34 7.04 26 6.12 L 26 2 L 22 2 L 22 6.12 C 13.66 7.04 7.04 13.66 6.12 22 L 2 22 L 2 26 L 6.12 26 C 7.04 34.34 13.66 40.96 22 41.88 L 22 46 L 26 46 L 26 41.88 C 34.34 40.96 40.96 34.34 41.88 26 L 46 26 L 46 22 L 41.88 22 L 41.88 22 Z  M 24 38 C 16.27 38 10 31.73 10 24 C 10 16.27 16.27 10 24 10 C 31.73 10 38 16.27 38 24 C 38 31.73 31.73 38 24 38 Z " fill="rgb(0,150,136)"/></svg>